Coordinates
version=1
nRows=22
nColumns=24
inDegrees=yes

Units are S.I. units (second, meters, Newtons, ...)
Angles are in degrees.

endheader
time	pelvis_tilt	pelvis_list	pelvis_rotation	pelvis_tx	pelvis_ty	pelvis_tz	hip_flexion_r	hip_adduction_r	hip_rotation_r	knee_angle_r	ankle_angle_r	subtalar_angle_r	mtp_angle_r	hip_flexion_l	hip_adduction_l	hip_rotation_l	knee_angle_l	ankle_angle_l	subtalar_angle_l	mtp_angle_l	lumbar_extension	lumbar_bending	lumbar_rotation
      4.99000000	     -0.26047638	      9.03427987	      9.33928832	     -0.24562348	      0.87068102	     -0.20990371	     19.29235425	     -9.21517543	    -10.60140233	     -1.65569253	      5.11253153	      7.78355557	      0.00000000	    -16.73293931	     11.53080992	     19.47306482	    -15.31225234	     13.63503274	      0.59673588	      0.00000000	    -21.19566732	     -6.98657182	    -18.91041073
      5.00000000	      0.06255339	      8.69298162	      9.37027951	     -0.23229918	      0.87083697	     -0.20927440	     19.13318257	     -8.78591932	     -9.74043759	     -3.32422024	      3.88552880	      5.72567446	      0.00000000	    -16.86737464	     11.04170940	     18.16298760	    -17.04436853	     12.72083069	      1.92530470	      0.00000000	    -21.20862715	     -6.56843938	    -18.59872605
      5.01000000	      0.41479690	      8.27440966	      9.20451757	     -0.21885468	      0.87123834	     -0.20841360	     19.04102659	     -8.17728624	     -8.40770981	     -5.20448462	      2.59707610	      3.37797468	      0.00000000	    -16.84871674	     10.52386649	     16.52969657	    -18.98289519	     11.41189918	      3.10749869	      0.00000000	    -21.19604959	     -6.10022603	    -18.15208878
      5.02000000	      0.77060436	      7.83508531	      8.95118167	     -0.20539983	      0.87189712	     -0.20741891	     18.97488535	     -7.47604567	     -6.82664294	     -7.18964718	      1.49863978	      1.05585561	      0.00000000	    -16.61495136	     10.00547279	     14.69686364	    -21.21199192	      9.68343829	      4.15341808	      0.00000000	    -21.17036054	     -5.63292759	    -17.62046120
      5.03000000	      1.08493126	      7.39484972	      8.67751385	     -0.19189404	      0.87279605	     -0.20625654	     18.89493138	     -6.70897986	     -5.13293884	     -9.12777547	      0.66222997	     -1.18286241	      0.00000000	    -16.13073632	      9.47194437	     12.79169763	    -23.70445232	      7.46626692	      4.99544466	      0.00000000	    -21.07146263	     -5.23185385	    -17.05709737
      5.04000000	      1.41862531	      6.92590637	      8.33989724	     -0.17850409	      0.87388189	     -0.20496656	     18.76850038	     -5.86233284	     -3.60501054	    -11.03831474	      0.34109675	     -2.84832438	      0.00000000	    -15.42076671	      8.89119246	     10.76337682	    -26.50463925	      4.95923292	      5.67820620	      0.00000000	    -21.00450973	     -4.79808524	    -16.50122967
      5.05000000	      1.73520154	      6.45977700	      8.01417060	     -0.16522649	      0.87508762	     -0.20359651	     18.55944304	     -5.00286183	     -2.35354426	    -12.80104383	      0.52206015	     -4.03621010	      0.00000000	    -14.47568529	      8.27256472	      8.78301508	    -29.56956902	      2.16984403	      6.09186119	      0.00000000	    -20.92622749	     -4.39973040	    -15.93647735
      5.06000000	      1.97910409	      6.00076248	      7.77679191	     -0.15218047	      0.87630249	     -0.20228413	     18.28197595	     -4.17806788	     -1.39013952	    -14.32934935	      1.07432976	     -4.89603046	      0.00000000	    -13.23628024	      7.63301020	      7.02635392	    -32.89911151	     -0.82165346	      6.09338518	      0.00000000	    -20.79635870	     -4.01471788	    -15.43504524
      5.07000000	      2.27131417	      5.49661457	      7.78776426	     -0.13937444	      0.87768613	     -0.20127873	     17.73722847	     -3.39245921	     -1.00674507	    -15.51893582	      1.94460890	     -5.37629511	      0.00000000	    -11.84240966	      6.87765233	      5.66471609	    -36.46480736	     -3.89058234	      5.65965800	      0.00000000	    -20.75624889	     -3.51312965	    -15.12711175
      5.08000000	      2.19381628	      5.14424685	      7.74758515	     -0.12724222	      0.87844465	     -0.20008333	     17.55155265	     -2.78026021	     -0.48648641	    -16.56562767	      2.97291396	     -5.81376219	      0.00000000	     -9.82632419	      6.36381553	      4.45013853	    -40.27878659	     -6.94166346	      4.85551871	      0.00000000	    -20.42715195	     -3.30669206	    -14.78224984
      5.09000000	      2.18164407	      4.66903834	      7.99733770	     -0.11537726	      0.87930065	     -0.19930350	     17.07391112	     -2.14319333	     -0.55359489	    -17.21715674	      4.07773092	     -6.00630788	      0.00000000	     -7.70819426	      5.68473956	      3.66502704	    -44.22784814	     -9.86859553	      3.66811445	      0.00000000	    -20.19711179	     -2.86880101	    -14.62857500
      5.10000000	      2.04433866	      4.13577007	      8.34325191	     -0.10382225	      0.87989905	     -0.19867963	     16.60359787	     -1.50055777	     -0.83841195	    -17.58501864	      5.20780042	     -6.01557894	      0.00000000	     -5.31766954	      4.99410588	      3.12128909	    -48.22989397	    -12.66278337	      2.16037797	      0.00000000	    -19.83942301	     -2.36551344	    -14.53056103
      5.11000000	      2.01154052	      3.56708223	      8.80968263	     -0.09273861	      0.88054388	     -0.19823934	     15.89306790	     -0.82993417	     -1.26244831	    -17.64748597	      6.19866157	     -6.14879904	      0.00000000	     -2.93678473	      4.30959868	      2.86781273	    -52.18476682	    -15.27511766	      0.23866178	      0.00000000	    -19.70973610	     -1.77710850	    -14.42311691
      5.12000000	      1.99738662	      2.95143655	      9.29846180	     -0.08180436	      0.88122038	     -0.19790115	     15.04505916	     -0.10680829	     -1.79256528	    -17.42330931	      7.02056222	     -6.25500312	      0.00000000	     -0.54264023	      3.63177092	      2.76805136	    -55.95704450	    -17.78658778	     -1.87716486	      0.00000000	    -19.59808225	     -1.12986680	    -14.27979166
      5.13000000	      1.82970770	      2.32262851	      9.75921887	     -0.07106773	      0.88159625	     -0.19765086	     14.32327945	      0.60996332	     -2.33141498	    -17.06704241	      7.88769559	     -6.14961414	      0.00000000	      2.02535055	      3.04158609	      2.75553966	    -59.52068939	    -19.98213099	     -4.09151050	      0.00000000	    -19.30099704	     -0.48190945	    -14.16122363
      5.14000000	      1.94451247	      1.75474823	     10.16300908	     -0.06048094	      0.88245253	     -0.19737958	     13.19107284	      1.35611297	     -2.75847645	    -16.45757391	      8.44253788	     -6.32576935	      0.00000000	      4.20879474	      2.52256985	      2.80436677	    -62.70190876	    -21.89579330	     -6.31790067	      0.00000000	    -19.40350236	      0.12954160	    -13.88704665
      5.15000000	      2.00938385	      1.27587129	     10.44946243	     -0.04984675	      0.88332410	     -0.19711506	     12.05160401	      2.02922186	     -3.04359250	    -15.73654907	      9.00272509	     -6.35390695	      0.00000000	      6.32749226	      2.15409356	      2.80924540	    -65.48586011	    -23.38807942	     -8.38112706	      0.00000000	    -19.41583043	      0.62382955	    -13.58437401
      5.16000000	      2.11409693	      0.91232559	     10.57646417	     -0.03936089	      0.88434023	     -0.19673974	     10.87040461	      2.61807242	     -3.23435441	    -14.99848051	      9.45494221	     -6.35738681	      0.00000000	      8.27972502	      1.91670060	      2.69852064	    -67.86758368	    -24.26234805	    -10.10081037	      0.00000000	    -19.54676056	      0.96197312	    -13.14208789
      5.17000000	      2.19511319	      0.70437824	     10.55969852	     -0.02879096	      0.88548256	     -0.19632437	      9.66297205	      3.05651706	     -3.22839166	    -14.21821759	      9.89984892	     -6.26387915	      0.00000000	     10.08636841	      1.84927023	      2.45498321	    -69.79760708	    -24.53185006	    -11.43559955	      0.00000000	    -19.63681348	      1.10028887	    -12.67843138
      5.18000000	      2.31175452	      0.63390661	     10.40158101	     -0.01828151	      0.88675837	     -0.19581437	      8.42350906	      3.36230850	     -3.14054818	    -13.47759892	     10.33293382	     -6.10313508	      0.00000000	     11.70025289	      1.89647984	      2.06409300	    -71.31316339	    -23.95613670	    -12.19252180	      0.00000000	    -19.81843948	      1.06613690	    -12.13918671
      5.19000000	      2.33371774	      0.71990747	     10.11306318	     -0.00785233	      0.88803247	     -0.19524337	      7.29638357	      3.48021661	     -2.91332832	    -12.79677001	     10.73066921	     -5.90522213	      0.00000000	     13.26511342	      2.10609790	      1.51563062	    -72.40529812	    -22.71445007	    -12.56135857	      0.00000000	    -19.93584567	      0.81052480	    -11.51679284
      5.20000000	      2.33154704	      0.93056268	      9.73707384	      0.00254599	      0.88929939	     -0.19460337	      6.20352044	      3.45089879	     -2.59507354	    -12.16878890	     11.19505561	     -5.64167222	      0.00000000	     14.72201536	      2.41043007	      0.85276078	    -73.11019654	    -20.73135751	    -12.32677160	      0.00000000	    -20.03975622	      0.39525938	    -10.93795988
